<svg width="1921" height="11" viewBox="0 0 1921 11" fill="none" xmlns="http://www.w3.org/2000/svg">
<path d="M386.381 0.999268H0.000549316V4.03583H6.26254L11.7505 9.55349H63.7202L68.1121 5.13936L69.7489 6.78725H111.605L114.62 9.81641H166.793L172.499 4.08027H386.381V0.999268Z" fill="white"/>
<path d="M394.197 1.18555H655.453L654.157 2.48164H669.895L671.191 1.18555H1920" stroke="white" stroke-width="0.370312"/>
<path d="M366.92 1.52119L370.858 5.44336H398.826L394.37 0.99961H366.238L366.92 1.52119Z" fill="white"/>
<path d="M347.106 7.30228L349.95 10.1426H370.15L366.932 6.92456H346.613L347.106 7.30228Z" fill="white" stroke="white" stroke-width="0.370312" stroke-miterlimit="10"/>
<path d="M1161.49 3.37845L1164.34 6.21875H1184.54L1181.32 3.00073H1161L1161.49 3.37845Z" fill="white" stroke="white" stroke-width="0.370312" stroke-miterlimit="10"/>
<path d="M601.019 1.15586L606.388 6.52539H658.047L663.572 1.00034C663.572 1.00034 600.711 1.46322 601.019 1.15586Z" fill="white" stroke="white" stroke-width="0.370312" stroke-miterlimit="10"/>
<path d="M1534 0.999268H1920.38V4.03583H1914.12L1908.63 9.55349H1856.66L1852.27 5.13936L1850.63 6.78725H1808.78L1805.76 9.81641H1753.59L1747.88 4.08027H1534V0.999268Z" fill="white"/>
<path d="M1573.28 7.30228L1570.43 10.1426H1550.23L1553.45 6.92456H1573.77L1573.28 7.30228Z" fill="white" stroke="white" stroke-width="0.370312" stroke-miterlimit="10"/>
</svg>
